<?xml version="1.0" encoding="utf-8"?>
<!-- Generator: Adobe Illustrator 23.0.3, SVG Export Plug-In . SVG Version: 6.00 Build 0)  -->
<svg version="1.1" id="Layer_1" xmlns="http://www.w3.org/2000/svg" xmlns:xlink="http://www.w3.org/1999/xlink" x="0px" y="0px"
	 viewBox="0 0 130 32" style="enable-background:new 0 0 130 32;" xml:space="preserve">
<style type="text/css">
	.st0{fill:#FF00F9;}
</style>
<g>
	<path class="st0" d="M4.4,6.8h5.2v7.8h2.6V12h2.6v2.6h2.6V6.8h5.2v15.6H20V25h-2.6v-2.6h-2.6v-2.6h-2.6v2.6H9.6V25H7v-2.6H4.4V6.8z
		"/>
	<path class="st0" d="M43.3,6.8v2.6h-5.2v13h5.2V25H27.8v-2.6h5.2v-13h-5.2V6.8H43.3z"/>
	<path class="st0" d="M45.9,6.8h5.2v2.6h2.6V12h2.6v2.6h2.6V6.8h5.2V25h-5.2v-2.6h-2.6v-2.6h-2.6v-2.6h-2.6V25h-5.2V6.8z"/>
	<path class="st0" d="M66.7,6.8h5.2v2.6h2.6V12h2.6v2.6h2.6V6.8h5.2V25h-5.2v-2.6h-2.6v-2.6h-2.6v-2.6h-2.6V25h-5.2V6.8z"/>
	<path class="st0" d="M105.7,6.8v2.6H95.3v5.2h7.8v2.6h-7.8v5.2h10.4V25H90.1V6.8H105.7z"/>
	<path class="st0" d="M108.2,6.8h15.6v2.6h2.6v7.8h-5.2v2.6h2.6v2.6h2.6V25h-7.8v-2.6H116v-2.6h-2.6V25h-5.2V6.8z M113.4,9.4v7.8
		h5.2v-2.6h2.6V9.4H113.4z"/>
</g>
</svg>
