<?xml version="1.0" encoding="utf-8"?>
<!-- Generator: Adobe Illustrator 23.0.3, SVG Export Plug-In . SVG Version: 6.00 Build 0)  -->
<svg version="1.1" id="Layer_1" xmlns="http://www.w3.org/2000/svg" xmlns:xlink="http://www.w3.org/1999/xlink" x="0px" y="0px"
	 viewBox="0 0 36 36" style="enable-background:new 0 0 36 36;" xml:space="preserve">
<style type="text/css">
	.st0{fill:#FFFFFF;}
	.st1{fill-opacity:0;}
</style>
<title>volume-up-line</title>
<path d="M23.4,26.3c-1.1,0-2-0.9-2-2c0-0.7,0.4-1.4,0.9-1.7c2.4-1.5,3.2-4.7,1.7-7.2c-0.5-0.7-1.1-1.3-1.8-1.8
	c-0.4-0.2-0.8-0.6-0.9-1.2s-0.1-1.1,0.1-1.5c0.3-0.7,1-1.1,1.8-1.1c0.3,0,0.6,0.1,0.9,0.2l0.2,0.1c2.1,1.2,3.6,3.2,4.2,5.6
	c0.6,2.4,0.3,4.9-0.9,7c-0.7,1.3-1.8,2.4-3.1,3.2C24.2,26.1,23.8,26.2,23.4,26.3L23.4,26.3z"/>
<path class="st0" d="M23.4,25.3c-0.6,0-1-0.4-1-1c0-0.4,0.2-0.7,0.5-0.9c2.9-1.8,3.8-5.6,2-8.6c-0.5-0.9-1.3-1.6-2.2-2.1
	c-0.5-0.3-0.7-0.9-0.4-1.3c0.3-0.5,0.9-0.7,1.3-0.4c0,0,0,0,0.1,0c3.9,2.3,5.3,7.3,3,11.2c-0.7,1.2-1.6,2.1-2.7,2.8
	C23.8,25.2,23.6,25.2,23.4,25.3z"/>
<path d="M25.6,32.2c-1,0-1.9-0.9-1.9-2c0-0.8,0.4-1.4,1.1-1.8c2.8-1.4,4.8-3.7,5.8-6.6c1-2.9,0.8-6-0.6-8.7c-1.1-2.3-3-4.2-5.4-5.3
	c-0.5-0.2-0.8-0.6-1-1.1s-0.2-1,0-1.5c0.3-0.7,1-1.2,1.8-1.2C25.7,4,26,4,26.2,4.2C34,7.8,37.3,17,33.7,24.7c-1.5,3.1-4,5.7-7.1,7.2
	c-0.3,0.1-0.6,0.2-0.9,0.2L25.6,32.2z"/>
<path class="st0" d="M25.6,31.2c-0.6,0-1-0.5-1-1c0-0.4,0.2-0.7,0.5-0.9c6.2-3,8.7-10.5,5.7-16.7c-1.2-2.5-3.3-4.5-5.8-5.7
	c-0.5-0.2-0.7-0.8-0.5-1.3s0.8-0.7,1.3-0.5c0,0,0,0,0.1,0c7.2,3.4,10.3,12,6.9,19.2c-1.4,2.9-3.7,5.3-6.7,6.8
	C26,31.2,25.8,31.2,25.6,31.2z"/>
<path d="M18,33.1c-0.8,0-1.6-0.3-2.1-0.9L8.7,25H4c-1.7,0-3-1.3-3-3v-8c0-1.7,1.3-3,3-3h4.8l7-7.1C16.4,3.3,17.2,3,18,3
	c0.8,0,1.5,0.3,2.1,0.8C20.7,4.4,21,5.2,21,6v24c0,1.2-0.7,2.3-1.9,2.8C18.9,32.9,18.5,33,18,33.1L18,33.1L18,33.1z M9.6,21
	c0.5,0,1.1,0.2,1.4,0.6l6,6V8.4l-5.9,6c-0.4,0.4-0.9,0.6-1.4,0.6H5v6H9.6z"/>
<path class="st0" d="M18,32.1c-0.5,0-1-0.2-1.4-0.6L9.1,24H4c-1.1,0-2-0.9-2-2v-8c0-1.1,0.9-2,2-2h5.2l7.3-7.4
	c0.8-0.8,2-0.8,2.8-0.1C19.8,4.9,20,5.4,20,6v24c0,0.8-0.5,1.5-1.2,1.9C18.5,32,18.3,32,18,32.1z M4,14v8h5.6c0.3,0,0.5,0.1,0.7,0.3
	l7.7,7.8V6l-7.6,7.7C10.2,13.9,9.9,14,9.6,14H4z"/>
<rect class="st1" width="36" height="36"/>
</svg>
