<svg xmlns:dc="http://purl.org/dc/elements/1.1/" xmlns:cc="http://creativecommons.org/ns#" xmlns:rdf="http://www.w3.org/1999/02/22-rdf-syntax-ns#" xmlns:svg="http://www.w3.org/2000/svg" xmlns="http://www.w3.org/2000/svg" xmlns:sodipodi="http://sodipodi.sourceforge.net/DTD/sodipodi-0.dtd" xmlns:inkscape="http://www.inkscape.org/namespaces/inkscape" viewBox="0 0 12.7 15.875" version="1.1" x="0px" y="0px"><g transform="translate(0,-284.29999)"><path style="" d="M 2.3736194,291.78207 0.5291651,295.8128 H 12.170833 l -1.844318,-4.03073 H 7.8814161 L 7.45674,292.63689 h 2.3208133 l 0.3922717,0.85728 a 3.6643788,3.6643788 0 0 1 -3.1674304,0.30368 7.2656421,7.2656421 0 0 0 -4.4089169,-0.44191 l 0.3291031,-0.71905 h 2.3208133 l -0.4246753,-0.85482 z m 2.017005,1.85854 a 6.8272754,6.8272754 0 0 1 2.4479702,0.564 4.1027452,4.1027452 0 0 0 3.5147184,-0.30941 l 0.48634,1.06278 H 1.8603443 l 0.5017902,-1.09628 a 6.8272754,6.8272754 0 0 1 2.0284899,-0.22109 z" fill="#fff" stroke="none"/><path style="" d="m 6.2755504,285.48837 a 2.336999,2.336999 0 0 0 -2.0185086,3.37553 l 2.0930256,4.21312 2.0928884,-4.21312 a 2.336999,2.336999 0 0 0 -2.1674054,-3.37553 z m 0.047171,1.402 a 0.93422776,0.93422776 0 0 1 0.9616051,0.93385 0.93425955,0.93425955 0 0 1 -1.8685191,0 0.93422776,0.93422776 0 0 1 0.906914,-0.93385 z" fill="#fff" stroke="none"/></g><text x="0" y="27.7" fill="#fff" font-size="5px" font-weight="bold" font-family="'Helvetica Neue', Helvetica, Arial-Unicode, Arial, Sans-serif">Created by Phạm Thanh Lộc</text><text x="0" y="32.7" fill="#fff" font-size="5px" font-weight="bold" font-family="'Helvetica Neue', Helvetica, Arial-Unicode, Arial, Sans-serif">from the Noun Project</text></svg>