<?xml version="1.0" encoding="utf-8"?>
<svg version="1.1" xmlns="http://www.w3.org/2000/svg" xmlns:xlink="http://www.w3.org/1999/xlink" width="100" height="80" viewBox="0 0 100 80">
    <defs>
        <path id="computer-desktop" d="M7 17h-5c-1.105 0-2-0.895-2-2v0-13c0-1.1 0.9-2 2-2h16c1.105 0 2 0.895 2 2v0 13c0 1.105-0.895 2-2 2v0h-5l4 2v1h-14v-1l4-2zM2 2v11h16v-11h-16z"></path>
        <path id="computer-laptop" d="M18 16h2v1c0 0.552-0.448 1-1 1v0h-18c-0.552 0-1-0.448-1-1v0-1h2v-12c0-1.1 0.9-2 2-2h12c1.105 0 2 0.895 2 2v0 12zM4 4v9h12v-9h-12zM8 15v1h4v-1h-4z"></path>
        <path id="location" d="M10 20s-7-9.13-7-13c0-3.866 3.134-7 7-7s7 3.134 7 7v0c0 3.87-7 13-7 13zM10 9c1.105 0 2-0.895 2-2s-0.895-2-2-2v0c-1.105 0-2 0.895-2 2s0.895 2 2 2v0z"></path>
        <path id="mic" d="M9 18v-1.060c-3.967-0.514-7-3.872-7-7.937 0-0.001 0-0.002 0-0.003v0h2c0 3.314 2.686 6 6 6s6-2.686 6-6v0h2c0 0.001 0 0.002 0 0.003 0 4.066-3.033 7.423-6.96 7.933l-0.040 0.004v1.060h3v2h-8v-2h3zM6 4c0-2.209 1.791-4 4-4s4 1.791 4 4v0 5c0 2.209-1.791 4-4 4s-4-1.791-4-4v0-5z"></path>
        <path id="volume-up" d="M5 7h-4v6h4l5 5v-16l-5 5zM16.36 16.36l-1.41-1.41c1.272-1.265 2.059-3.015 2.059-4.95s-0.787-3.685-2.059-4.95l-0-0 1.41-1.41c1.634 1.625 2.645 3.874 2.645 6.36s-1.011 4.735-2.644 6.36l-0 0zM13.54 13.54l-1.42-1.42c0.542-0.543 0.877-1.292 0.877-2.12s-0.335-1.577-0.877-2.12l0 0 1.42-1.42c0.912 0.903 1.477 2.156 1.477 3.54s-0.565 2.637-1.477 3.54l-0 0z"></path>
    </defs>
    <g width="20" height="20" fill="#fff">
        <use href="#computer-desktop"></use>
        <use x="20" href="#computer-laptop"></use>
        <use x="40" href="#location"></use>
        <use x="60" href="#mic"></use>
        <use x="80" href="#volume-up"></use>
    </g>
    <g width="20" height="20">
        <use y="20" href="#computer-desktop"></use>
        <use x="20" y="20" href="#computer-laptop"></use>
        <use x="40" y="20" href="#location"></use>
        <use x="60" y="20" href="#mic"></use>
        <use x="80" y="20" href="#volume-up"></use>
    </g>
    <g width="20" height="20" fill="transparent" stroke="#000" stroke-width="1">
        <svg y="40"><use href="#computer-desktop" transform="scale(.9) translate(1,1)"></use></svg>
        <svg x="20" y="40"><use href="#computer-laptop" transform="scale(.9) translate(1,1)"></use></svg>
        <svg x="40" y="40"><use href="#location" transform="scale(.9) translate(1,1)"></use></svg>
        <svg x="60" y="40"><use href="#mic" transform="scale(.9) translate(1,1)"></use></svg>
        <svg x="80" y="40"><use href="#volume-up" transform="scale(.9) translate(1,1)"></use></svg>
    </g>
    <g fill="transparent" stroke="#fff" stroke-width="1">
        <svg y="60"><use href="#computer-desktop" transform="scale(.9) translate(1,1)"></use></svg>
        <svg x="20" y="60"><use href="#computer-laptop" transform="scale(.9) translate(1,1)"></use></svg>
        <svg x="40" y="60"><use href="#location" transform="scale(.9) translate(1,1)"></use></svg>
        <svg x="60" y="60"><use href="#mic" transform="scale(.9) translate(1,1)"></use></svg>
        <svg x="80" y="60"><use href="#volume-up" transform="scale(.9) translate(1,1)"></use></svg>
    </g>
</svg>
